<svg width="48" height="48" viewBox="0 0 48 48" fill="none" xmlns="http://www.w3.org/2000/svg">
  <!-- Main logo container with gradient background -->
  <defs>
    <linearGradient id="logoGradient" x1="0%" y1="0%" x2="100%" y2="100%">
      <stop offset="0%" style="stop-color:#2563eb;stop-opacity:1" />
      <stop offset="50%" style="stop-color:#9333ea;stop-opacity:1" />
      <stop offset="100%" style="stop-color:#4338ca;stop-opacity:1" />
    </linearGradient>
    <linearGradient id="securityBadge" x1="0%" y1="0%" x2="100%" y2="100%">
      <stop offset="0%" style="stop-color:#10b981;stop-opacity:1" />
      <stop offset="100%" style="stop-color:#059669;stop-opacity:1" />
    </linearGradient>
  </defs>
  
  <!-- Main rounded rectangle with gradient - large but balanced -->
  <rect x="3" y="3" width="42" height="42" rx="10" ry="10" fill="url(#logoGradient)" stroke="rgba(255,255,255,0.2)" stroke-width="1"/>
  
  <!-- Code2 icon (simplified version) - clean and proportional -->
  <g transform="translate(24,24)" stroke="white" stroke-width="3" fill="none" stroke-linecap="round" stroke-linejoin="round">
    <!-- Left bracket -->
    <path d="M-7,-5 L-11,0 L-7,5"/>
    <!-- Right bracket -->
    <path d="M7,-5 L11,0 L7,5"/>
    <!-- Middle slash -->
    <path d="M-2,7 L2,-7"/>
  </g>
  
  <!-- Security badge (Lock icon) positioned at top-right - clean design -->
  <circle cx="39" cy="9" r="6" fill="url(#securityBadge)" stroke="white" stroke-width="1.5"/>
  <g transform="translate(39,9)" stroke="white" stroke-width="1.5" fill="none" stroke-linecap="round" stroke-linejoin="round">
    <!-- Lock body -->
    <rect x="-2.5" y="-0.5" width="5" height="3" rx="0.5"/>
    <!-- Lock shackle -->
    <path d="M-1.5,-2.5 C-1.5,-3.5 -0.8,-4 0,-4 C0.8,-4 1.5,-3.5 1.5,-2.5 L1.5,-0.5"/>
  </g>
</svg>